<?xml version="1.0" standalone="no"?>
<!DOCTYPE svg PUBLIC "-//W3C//DTD SVG 20010904//EN"
 "http://www.w3.org/TR/2001/REC-SVG-20010904/DTD/svg10.dtd">
<svg version="1.0" xmlns="http://www.w3.org/2000/svg"
 width="260.000000pt" height="260.000000pt" viewBox="0 0 260.000000 260.000000"
 preserveAspectRatio="xMidYMid meet">
<metadata>
Created by potrace 1.11, written by Peter Selinger 2001-2013
</metadata>
<g transform="translate(0.000000,260.000000) scale(0.100000,-0.100000)"
fill="#000000" stroke="none">
<path d="M1189 2416 c-2 -2 -22 -6 -44 -10 -198 -29 -384 -140 -505 -301 -85
-112 -148 -271 -164 -410 -15 -126 -16 -184 -4 -192 7 -4 387 -8 843 -8 548 0
830 -3 829 -10 -1 -5 -5 -50 -8 -100 -8 -109 -10 -124 -37 -211 -105 -343
-402 -554 -784 -558 -250 -2 -437 65 -593 212 -115 108 -209 284 -237 443 -14
79 -22 156 -19 188 l3 36 -232 0 -232 0 0 -70 c0 -221 95 -505 239 -715 195
-285 533 -494 866 -538 105 -14 350 -7 440 12 493 104 864 458 1004 956 23 82
42 216 41 290 l0 65 -220 3 c-121 2 -222 5 -224 8 -3 2 -6 21 -7 42 -19 268
-98 463 -258 630 -150 157 -322 230 -562 238 -72 2 -132 2 -135 0z"/>
</g>
</svg>
