<?xml version="1.0" encoding="utf-8"?>
<!-- Generator: Adobe Illustrator 19.2.1, SVG Export Plug-In . SVG Version: 6.00 Build 0)  -->
<svg version="1.1" id="Слой_1" xmlns="http://www.w3.org/2000/svg" xmlns:xlink="http://www.w3.org/1999/xlink" x="0px" y="0px"
	 viewBox="0 0 700 160" style="enable-background:new 0 0 700 160;" xml:space="preserve">
<style type="text/css">
	.st0{fill:#1D1D1B;}
	.st1{fill:#E41622;}
</style>
<g>
	<path class="st0" d="M200.2,98.9c0,0.1-0.2,1.7-0.2,1.8c0,22.5-15.1,37.5-37.7,37.5c-22.5,0-36.8-16.2-36.8-38.7c0-0.1,0-0.3,0-0.4
		h-20.6c0.1,32.8,25.1,59.2,57.6,59.2s57.8-26.4,57.9-59.2L200.2,98.9z"/>
</g>
<g>
	<path class="st1" d="M200.2,98.5c-0.2-22.3-14.9-40.4-37.3-40.4c-22.4,0-37.1,16.2-37.3,38.5c0,0.1,0,2.4,0,2.5l74.6-0.2
		C200.2,98.8,200.2,98.7,200.2,98.5z"/>
</g>
<g>
	<path class="st0" d="M242.2,25.1h56c16.7,0,29.9,9.5,29.9,27.5c0,9.9-3.3,20-13.1,23.6c8,3.1,11.2,11.6,12.1,23.5
		c0.4,5.3,1,13.7,1,20.1l-20.6,0c-0.2-5.1,0.2-10.7,0.1-16c-0.2-9.1-2.7-13-14.4-13l-31.4-0.1v29.6l-19.6,0.1V25.1z M261.8,70.2
		l28.3,0c8.5,0,13.7-5.8,13.6-14.3c-0.1-14.5-7.7-13.2-19.9-14.6h-22V70.2z"/>
</g>
<g>
	<path class="st0" d="M390.2,99.2l49.4-61.9h-49.4V16.7l87.1-0.3l0.1,17.6l-54.5,65.2H481v20.6h-90.7L390.2,99.2z"/>
</g>
<g>
	<g>
		<path class="st0" d="M608.9,111.5V3.9l20.8,0.2l49.7,67.1V0H700v107.4h-20.3l-49.9-66l-0.1,70.2H608.9z"/>
	</g>
</g>
<polygon class="st0" points="68.7,120.6 93.2,120.4 91.1,33.3 66.6,33.4 67.7,77 25.5,78.3 24.5,37.6 0,37.4 2,120.6 26.5,120.4 
	26,98.6 68.1,97.3 "/>
<rect x="348.7" y="20.3" transform="matrix(0.999 -4.483299e-002 4.483299e-002 0.999 -2.7921 16.2028)" class="st0" width="22.2" height="100.1"/>
<g>
	<path class="st0" d="M581.5,21c-10.7-11.3-24.2-17-40.6-17c-16.4,0-30,5.7-40.7,17c-10.7,11.3-16,24.7-16,40.8
		c0,15.9,5.3,29.5,16,40.8c10.7,11.3,24.4,17,40.7,17c16.4,0,29.8-5.6,40.6-16.8c10.7-11.3,16-24.9,16-40.9S592.3,32.3,581.5,21z
		 M540.8,101.3c-18.5,0-33.5-17.6-33.5-39.3s15-39.3,33.5-39.3c18.5,0,33.5,17.6,33.5,39.3S559.3,101.3,540.8,101.3z"/>
</g>
</svg>
